<?xml version="1.0" encoding="UTF-8" standalone="no" ?>
<!DOCTYPE svg PUBLIC "-//W3C//DTD SVG 1.1//EN" "http://www.w3.org/Graphics/SVG/1.1/DTD/svg11.dtd">
<svg xmlns="http://www.w3.org/2000/svg" xmlns:xlink="http://www.w3.org/1999/xlink" version="1.1" width="200" height="200" viewBox="0 0 200 200" xml:space="preserve">
<desc>Created with Fabric.js 5.2.4</desc>
<defs>
</defs>
<g transform="matrix(1 0 0 1 100 100)" id="78e0cc73-8f9f-4c82-904e-3c5e35599c01"  >
<rect style="stroke: none; stroke-width: 1; stroke-dasharray: none; stroke-linecap: butt; stroke-dashoffset: 0; stroke-linejoin: miter; stroke-miterlimit: 4; fill: rgb(255,255,255); fill-rule: nonzero; opacity: 1; visibility: hidden;" vector-effect="non-scaling-stroke"  x="-100" y="-100" rx="0" ry="0" width="200" height="200" />
</g>
<g transform="matrix(Infinity NaN NaN Infinity 0 0)" id="d9fe8d91-7aec-4aa1-b38e-a5f05273862c"  >
</g>
<g transform="matrix(0.31 0 0 0.31 100 100)"  >
<g style="" vector-effect="non-scaling-stroke"   >
		<g transform="matrix(-0.13 0 0 -0.13 0 0)"  >
<path style="stroke: none; stroke-width: 1; stroke-dasharray: none; stroke-linecap: butt; stroke-dashoffset: 0; stroke-linejoin: miter; stroke-miterlimit: 4; fill: rgb(159,203,62); fill-rule: nonzero; opacity: 1;" vector-effect="non-scaling-stroke"  transform=" translate(-6539.79, -6299.82)" d="M 5630 8610 C 5521 8596 5362 8538 5269 8478 C 5195 8430 5026 8268 4981 8201 C 4960 8170 4931 8121 4916 8092 C 4878 8018 4830 7814 4827 7721 C 4825 7645 4826 7644 4890 7520 C 4939 7426 4963 7390 4988 7375 C 5110 7300 5192 7239 5237 7192 C 5285 7140 5291 7128 5321 7021 L 5353 6905 L 5342 6745 C 5328 6522 5311 6468 5175 6190 C 5060 5956 5059 5954 5016 5765 C 4961 5527 4953 5507 4809 5220 C 4716 5035 4673 4962 4607 4875 C 4561 4815 4489 4714 4446 4652 C 4378 4553 4367 4532 4359 4477 C 4346 4382 4348 4332 4368 4302 C 4378 4287 4391 4266 4396 4255 C 4412 4225 4502 4181 4578 4165 C 4739 4130 5007 4162 5260 4245 C 5416 4296 5424 4296 5504 4260 C 5542 4243 5638 4211 5717 4190 C 5796 4168 5870 4145 5881 4139 C 5892 4134 5933 4120 5973 4110 C 6033 4094 6080 4090 6267 4090 C 6516 4090 6611 4100 6707 4136 C 6753 4153 6803 4163 6869 4167 C 6963 4173 6967 4172 7030 4140 C 7104 4102 7150 4085 7240 4060 C 7303 4042 7349 4027 7454 3993 C 7494 3980 7532 3978 7669 3983 C 7760 3986 7853 3994 7875 4001 C 7901 4008 7937 4034 7980 4076 L 8045 4139 L 8044 4227 C 8043 4328 8029 4363 7955 4454 C 7892 4532 7894 4543 7973 4535 C 8007 4532 8079 4522 8132 4514 C 8186 4506 8286 4500 8355 4500 C 8464 4500 8488 4503 8547 4525 C 8643 4561 8687 4593 8712 4645 C 8732 4686 8733 4694 8721 4742 C 8714 4771 8701 4805 8694 4818 C 8686 4830 8624 4884 8557 4937 C 8347 5103 8240 5216 8169 5348 L 8135 5411 L 8175 5446 C 8197 5465 8239 5499 8269 5522 C 8315 5557 8329 5576 8371 5664 C 8397 5719 8439 5827 8465 5903 C 8507 6032 8509 6042 8494 6064 C 8486 6078 8471 6091 8462 6095 C 8444 6102 8289 6117 8150 6126 C 8046 6132 8026 6121 8006 6042 C 7988 5976 7928 5868 7894 5841 L 7867 5820 L 7806 5887 C 7694 6010 7610 6073 7466 6143 C 7306 6221 7144 6275 6920 6325 C 6750 6362 6635 6401 6594 6432 C 6517 6493 6490 6623 6484 6975 C 6478 7254 6477 7238 6536 7495 C 6562 7604 6564 7630 6562 7773 C 6560 7887 6554 7951 6540 8003 C 6517 8095 6403 8334 6360 8384 C 6292 8461 6168 8531 6005 8585 C 5909 8617 5890 8620 5792 8619 C 5733 8618 5660 8614 5630 8610 z M 5936 8466 C 6026 8435 6151 8366 6207 8316 C 6232 8294 6270 8252 6292 8222 C 6371 8116 6447 7797 6421 7681 C 6416 7656 6408 7615 6405 7590 C 6401 7565 6387 7489 6373 7420 C 6350 7304 6348 7273 6346 6995 L 6345 6695 L 6374 6605 C 6389 6556 6404 6501 6405 6484 C 6407 6466 6421 6433 6436 6409 C 6466 6362 6569 6250 6583 6250 C 6587 6250 6627 6223 6672 6190 C 6716 6157 6757 6129 6764 6129 C 6804 6124 6860 6110 7000 6070 C 7036 6060 7096 6048 7134 6045 C 7227 6036 7291 6018 7403 5970 C 7455 5948 7506 5930 7516 5930 C 7570 5930 7766 5778 7812 5700 C 7825 5679 7853 5636 7874 5603 C 7923 5531 8026 5334 8034 5298 C 8037 5283 8050 5255 8063 5236 C 8075 5217 8104 5171 8128 5133 C 8179 5049 8209 5020 8320 4947 C 8450 4861 8604 4737 8608 4716 C 8614 4685 8591 4680 8480 4686 C 8361 4692 8246 4713 8180 4740 C 8155 4750 8122 4762 8107 4767 C 8084 4774 8074 4787 8058 4830 C 8047 4860 8035 4906 8031 4932 C 8024 4975 8015 4994 7983 5027 C 7977 5034 7966 5040 7960 5040 C 7954 5040 7952 5044 7955 5050 C 7958 5055 7953 5074 7943 5092 C 7922 5131 7874 5140 7864 5107 C 7861 5096 7852 5091 7844 5094 C 7836 5097 7827 5093 7824 5085 C 7814 5061 7793 5068 7780 5099 C 7764 5137 7719 5155 7696 5132 C 7684 5120 7680 5119 7680 5129 C 7680 5137 7671 5131 7660 5117 C 7649 5103 7640 5085 7640 5076 C 7640 5060 7628 5055 7617 5067 C 7613 5070 7600 5074 7587 5076 C 7570 5078 7560 5070 7548 5047 C 7529 5011 7517 4940 7529 4940 C 7534 4940 7535 4929 7533 4916 C 7527 4889 7579 4740 7618 4670 C 7632 4645 7676 4590 7716 4547 C 7839 4416 7878 4366 7894 4320 C 7927 4225 7906 4180 7830 4180 C 7785 4180 7690 4207 7690 4220 C 7690 4226 7687 4229 7683 4229 C 7652 4224 7651 4233 7680 4248 C 7699 4257 7716 4273 7716 4282 C 7717 4296 7714 4297 7700 4290 C 7676 4277 7667 4277 7675 4290 C 7686 4307 7661 4301 7641 4281 C 7630 4270 7619 4264 7616 4267 C 7613 4270 7605 4268 7597 4262 C 7589 4255 7579 4255 7570 4260 C 7558 4268 7559 4270 7575 4270 C 7593 4270 7593 4271 7572 4286 C 7545 4305 7544 4314 7571 4341 C 7588 4358 7594 4360 7601 4349 C 7607 4339 7610 4339 7610 4347 C 7610 4354 7604 4363 7596 4367 C 7588 4371 7581 4384 7579 4394 C 7575 4412 7541 4438 7493 4460 C 7480 4465 7470 4476 7470 4484 C 7470 4493 7462 4498 7450 4497 C 7424 4495 7424 4494 7461 4460 C 7490 4434 7494 4400 7467 4417 C 7461 4421 7443 4423 7427 4422 C 7405 4420 7400 4423 7402 4437 C 7404 4451 7399 4454 7378 4452 C 7362 4450 7350 4453 7350 4459 C 7350 4465 7356 4468 7363 4466 C 7369 4465 7372 4465 7367 4467 C 7363 4470 7363 4477 7367 4483 C 7371 4491 7368 4490 7358 4482 C 7335 4463 7311 4477 7313 4508 C 7315 4531 7310 4536 7286 4538 C 7253 4542 7222 4566 7242 4572 C 7249 4575 7251 4584 7246 4596 C 7239 4614 7238 4614 7229 4598 C 7215 4573 7201 4576 7206 4603 C 7208 4615 7208 4619 7204 4613 C 7197 4596 7175 4597 7162 4613 C 7153 4623 7155 4632 7166 4648 C 7180 4668 7179 4670 7157 4675 C 7144 4679 7130 4680 7124 4679 C 7104 4676 7090 4680 7090 4691 C 7090 4697 7097 4699 7106 4696 C 7116 4692 7119 4694 7113 4703 C 7103 4720 7103 4744 7114 4752 C 7120 4756 7112 4762 7097 4765 C 7082 4769 7070 4776 7070 4781 C 7070 4786 7063 4790 7055 4790 C 7047 4790 7040 4795 7040 4801 C 7040 4809 7036 4809 7026 4801 C 7016 4792 7009 4795 6997 4814 C 6988 4828 6985 4840 6990 4842 C 6996 4844 7002 4864 7004 4888 C 7008 4925 7006 4930 6991 4925 C 6980 4922 6966 4928 6955 4940 C 6941 4955 6940 4960 6951 4960 C 6960 4960 6961 4963 6954 4968 C 6948 4972 6940 4984 6936 4995 C 6929 5014 6928 5014 6916 4997 C 6904 4981 6902 4982 6890 5011 C 6880 5033 6872 5040 6858 5037 C 6848 5034 6837 5036 6834 5041 C 6831 5046 6839 5050 6852 5050 C 6865 5050 6882 5055 6890 5060 C 6903 5069 6903 5071 6890 5080 C 6882 5085 6869 5090 6863 5090 C 6856 5090 6850 5097 6850 5106 C 6850 5116 6843 5120 6828 5118 C 6815 5116 6800 5121 6794 5130 C 6785 5140 6778 5141 6769 5134 C 6744 5115 6690 5118 6684 5137 C 6680 5147 6671 5171 6662 5190 C 6653 5209 6647 5231 6648 5237 C 6651 5250 6625 5245 6603 5228 C 6590 5217 6550 5235 6550 5251 C 6550 5257 6541 5259 6531 5255 C 6520 5252 6509 5254 6505 5260 C 6496 5275 6470 5272 6470 5255 C 6470 5246 6479 5240 6494 5240 C 6521 5240 6535 5226 6525 5209 C 6520 5202 6512 5204 6501 5214 C 6491 5223 6480 5227 6477 5223 C 6473 5220 6470 5223 6470 5230 C 6470 5241 6467 5241 6458 5232 C 6442 5216 6433 5217 6426 5236 C 6423 5244 6424 5248 6430 5245 C 6439 5239 6460 5270 6460 5289 C 6460 5295 6451 5300 6440 5300 C 6429 5300 6412 5309 6403 5320 C 6393 5331 6380 5340 6374 5340 C 6367 5340 6354 5361 6344 5388 C 6334 5414 6319 5446 6310 5460 C 6300 5474 6274 5521 6252 5565 C 6147 5770 6128 5863 6129 6153 C 6130 6273 6132 6381 6135 6393 C 6142 6425 6127 6523 6114 6527 C 6080 6538 6063 5989 6094 5865 C 6121 5754 6188 5573 6241 5470 C 6267 5418 6305 5340 6325 5297 C 6366 5209 6472 5070 6498 5070 C 6538 5070 6670 4969 6849 4801 C 6864 4787 6896 4760 6919 4741 C 6948 4718 6958 4705 6950 4700 C 6941 4695 6941 4691 6949 4686 C 6955 4682 6964 4682 6970 4685 C 6975 4688 6977 4685 6975 4678 C 6968 4660 7174 4453 7258 4393 C 7295 4367 7357 4320 7395 4290 C 7434 4260 7481 4229 7500 4221 C 7681 4152 7724 4133 7720 4125 C 7712 4110 7548 4115 7441 4134 C 7372 4146 7321 4163 7246 4199 C 6895 4368 6846 4389 6832 4375 C 6825 4368 6869 4326 6892 4317 C 6916 4309 6896 4302 6815 4291 C 6771 4285 6681 4269 6615 4255 C 6422 4215 6293 4213 5985 4245 C 5935 4251 5867 4274 5728 4334 C 5669 4359 5618 4380 5615 4380 C 5612 4380 5563 4411 5507 4449 C 5394 4526 5297 4619 5214 4730 C 5146 4822 5147 4821 5155 4785 C 5173 4706 5228 4615 5323 4509 C 5356 4472 5382 4438 5381 4434 C 5381 4429 5361 4422 5338 4419 C 5314 4416 5248 4399 5190 4382 C 5006 4327 4888 4307 4740 4306 C 4608 4305 4604 4306 4555 4334 C 4528 4350 4500 4371 4493 4379 C 4462 4419 4491 4482 4593 4595 C 4630 4637 4658 4675 4655 4680 C 4652 4684 4658 4686 4667 4684 C 4678 4682 4721 4707 4772 4745 C 4837 4794 4880 4837 4943 4917 C 5081 5095 5080 5093 5086 5267 C 5092 5448 5122 5639 5161 5732 C 5176 5770 5192 5817 5196 5837 C 5200 5857 5224 5919 5251 5974 C 5338 6159 5431 6426 5450 6543 C 5490 6798 5476 7050 5414 7169 C 5389 7217 5394 7221 5473 7218 C 5525 7216 5552 7219 5564 7229 C 5593 7253 5565 7270 5497 7270 C 5418 7270 5338 7295 5270 7341 C 5240 7362 5180 7402 5137 7431 C 5082 7468 5053 7495 5039 7523 C 5028 7544 5020 7563 5022 7565 C 5024 7567 5044 7564 5066 7558 C 5113 7545 5148 7553 5132 7573 C 5126 7579 5088 7600 5047 7619 C 4963 7657 4963 7658 4951 7768 C 4943 7836 4945 7847 4972 7918 C 4988 7960 5008 8017 5016 8043 C 5028 8081 5054 8115 5138 8203 C 5319 8393 5381 8428 5600 8466 C 5652 8475 5697 8484 5699 8486 C 5701 8488 5740 8490 5785 8490 C 5845 8490 5885 8484 5936 8466 z M 8310 5989 C 8365 5977 8369 5969 8349 5911 L 8338 5880 L 8307 5907 C 8266 5941 8175 5981 8155 5974 C 8137 5967 8135 5939 8152 5922 C 8161 5913 8160 5910 8147 5910 C 8126 5910 8125 5877 8145 5846 C 8159 5825 8158 5822 8143 5808 C 8133 5799 8117 5790 8107 5789 C 8097 5787 8081 5773 8072 5758 C 8057 5732 8057 5730 8077 5708 C 8094 5690 8096 5681 8089 5667 C 8080 5652 8071 5650 8034 5656 C 7999 5661 7989 5659 7984 5646 C 7975 5623 7957 5626 7930 5656 L 7906 5681 L 7940 5708 C 8013 5765 8077 5861 8105 5955 L 8121 6013 L 8190 6006 C 8228 6003 8282 5995 8310 5989 z M 8302 5850 C 8312 5850 8320 5847 8320 5844 C 8320 5840 8297 5795 8268 5743 C 8217 5650 8129 5549 8075 5520 C 8043 5503 8030 5517 8030 5568 C 8030 5599 8031 5600 8072 5600 C 8115 5600 8150 5621 8150 5647 C 8150 5655 8159 5674 8171 5689 C 8187 5711 8190 5722 8182 5736 C 8174 5751 8177 5761 8191 5779 C 8201 5792 8210 5815 8210 5830 C 8210 5854 8215 5859 8238 5862 C 8253 5864 8269 5862 8275 5858 C 8280 5854 8292 5850 8302 5850 z M 5034 5243 C 5028 5131 5025 5109 5002 5070 C 4982 5034 4905 4934 4880 4910 C 4877 4907 4865 4893 4854 4878 C 4843 4864 4802 4828 4764 4799 C 4726 4771 4680 4733 4663 4717 C 4627 4683 4605 4687 4636 4723 C 4647 4735 4668 4763 4682 4785 C 4696 4807 4742 4863 4785 4910 C 4839 4970 4872 5017 4897 5070 C 4915 5111 4942 5161 4955 5180 C 4968 5199 4986 5244 4995 5280 C 5010 5337 5025 5370 5036 5370 C 5038 5370 5037 5313 5034 5243 z M 7896 4757 C 7962 4737 8045 4714 8081 4706 C 8162 4687 8332 4641 8345 4635 C 8372 4621 8156 4642 8100 4658 C 8052 4672 8031 4674 8018 4667 C 8006 4659 7995 4659 7978 4668 C 7919 4697 7726 4704 7708 4677 C 7700 4664 7640 4757 7640 4781 C 7640 4795 7650 4800 7683 4802 C 7730 4805 7731 4805 7896 4757 z" stroke-linecap="round" />
</g>
		<g transform="matrix(-0.13 0 0 -0.13 60.75 -219.35)"  >
<path style="stroke: none; stroke-width: 1; stroke-dasharray: none; stroke-linecap: butt; stroke-dashoffset: 0; stroke-linejoin: miter; stroke-miterlimit: 4; fill: rgb(159,203,62); fill-rule: nonzero; opacity: 1;" vector-effect="non-scaling-stroke"  transform=" translate(-6084.16, -7944.96)" d="M 6025 8176 C 5924 8132 5856 7957 5894 7844 C 5913 7788 5931 7765 5980 7730 C 6009 7709 6027 7705 6085 7705 C 6221 7705 6284 7768 6285 7905 C 6285 7968 6281 7982 6250 8034 C 6230 8068 6198 8103 6175 8119 C 6153 8133 6128 8153 6120 8162 C 6099 8186 6060 8192 6025 8176 z M 6118 8038 C 6138 8018 6131 8000 6098 7985 C 6063 7971 6020 7921 6020 7895 C 6020 7875 5979 7859 5963 7872 C 5931 7897 5972 8014 6020 8037 C 6052 8053 6103 8053 6118 8038 z" stroke-linecap="round" />
</g>
		<g transform="matrix(-0.13 0 0 -0.13 147.31 -170.55)"  >
<path style="stroke: none; stroke-width: 1; stroke-dasharray: none; stroke-linecap: butt; stroke-dashoffset: 0; stroke-linejoin: miter; stroke-miterlimit: 4; fill: rgb(159,203,62); fill-rule: nonzero; opacity: 1;" vector-effect="non-scaling-stroke"  transform=" translate(-5435, -7578.93)" d="M 5500 7604 C 5442 7590 5348 7576 5290 7572 C 5207 7566 5185 7562 5185 7550 C 5185 7528 5314 7525 5425 7545 C 5475 7554 5553 7566 5600 7573 C 5673 7584 5685 7589 5685 7605 C 5685 7634 5628 7633 5500 7604 z" stroke-linecap="round" />
</g>
		<g transform="matrix(-0.13 0 0 -0.13 81.53 -156.94)"  >
<path style="stroke: none; stroke-width: 1; stroke-dasharray: none; stroke-linecap: butt; stroke-dashoffset: 0; stroke-linejoin: miter; stroke-miterlimit: 4; fill: rgb(159,203,62); fill-rule: nonzero; opacity: 1;" vector-effect="non-scaling-stroke"  transform=" translate(-5928.28, -7476.87)" d="M 5738 7613 C 5728 7611 5720 7605 5720 7600 C 5720 7590 5748 7583 5820 7575 C 5857 7570 5899 7555 5947 7528 C 6009 7493 6023 7479 6049 7431 C 6090 7355 6115 7326 6129 7334 C 6147 7345 6131 7410 6101 7448 C 6040 7525 6012 7552 5956 7585 C 5893 7622 5826 7632 5802 7608 C 5793 7599 5787 7599 5778 7608 C 5771 7615 5764 7619 5761 7619 C 5757 7618 5747 7616 5738 7613 z" stroke-linecap="round" />
</g>
		<g transform="matrix(-0.13 0 0 -0.13 53.23 -81.11)"  >
<path style="stroke: none; stroke-width: 1; stroke-dasharray: none; stroke-linecap: butt; stroke-dashoffset: 0; stroke-linejoin: miter; stroke-miterlimit: 4; fill: rgb(159,203,62); fill-rule: nonzero; opacity: 1;" vector-effect="non-scaling-stroke"  transform=" translate(-6140.55, -6908.15)" d="M 6135 7258 C 6133 7251 6129 7182 6126 7105 C 6123 7028 6116 6938 6111 6905 C 6106 6872 6101 6775 6101 6690 C 6100 6543 6101 6537 6118 6553 C 6137 6572 6158 6720 6160 6845 C 6160 6884 6165 6933 6170 6955 C 6184 7014 6184 7238 6169 7256 C 6155 7273 6141 7274 6135 7258 z" stroke-linecap="round" />
</g>
</g>
</g>
</svg>